<?xml version="1.0" standalone="no"?>
<!DOCTYPE svg PUBLIC "-//W3C//DTD SVG 20010904//EN"
 "http://www.w3.org/TR/2001/REC-SVG-20010904/DTD/svg10.dtd">
<svg version="1.0" xmlns="http://www.w3.org/2000/svg"
 width="500.000000pt" height="500.000000pt" viewBox="0 0 500.000000 500.000000"
 preserveAspectRatio="xMidYMid meet">

<g transform="translate(0.000000,500.000000) scale(0.100000,-0.100000)"
fill="#000000" stroke="none">
<path d="M2235 4055 c-660 -122 -1169 -624 -1285 -1268 -27 -152 -28 -401 -1
-559 79 -461 361 -858 786 -1106 39 -23 116 -59 173 -81 l102 -39 0 166 0 167
-55 24 c-84 36 -226 135 -320 223 -201 189 -336 441 -380 712 -19 118 -19 320
0 432 61 347 280 664 590 854 253 155 590 214 890 156 39 -8 71 -13 73 -11 4
4 -18 319 -22 323 -24 23 -434 28 -551 7z"/>
<path d="M3093 3913 c3 -21 9 -98 13 -170 l7 -133 95 -64 c81 -55 285 -239
279 -251 -1 -3 6 -14 16 -25 17 -20 117 -177 117 -183 0 -3 17 -40 37 -83 20
-43 38 -83 39 -89 1 -5 14 -57 29 -115 20 -81 28 -140 32 -256 8 -220 -17
-354 -106 -563 -26 -61 -29 -76 -19 -90 12 -14 11 -14 -4 -2 -15 11 -19 11
-25 -5 -16 -44 -98 -157 -172 -236 -71 -76 -199 -189 -226 -199 -41 -16 -124
-73 -118 -81 3 -6 1 -8 -4 -5 -6 4 -46 -9 -89 -27 -44 -19 -133 -47 -199 -62
-107 -25 -139 -28 -301 -29 l-181 0 -6 -150 c-5 -112 -3 -151 6 -157 21 -13
337 -9 428 6 174 28 540 165 506 189 -8 6 -6 7 6 3 21 -7 187 96 187 115 0 7
3 10 6 6 9 -8 95 63 89 73 -3 4 3 7 13 6 9 0 16 5 14 12 -1 6 1 11 6 10 15 -5
105 90 97 103 -5 7 -4 10 3 6 10 -7 92 82 92 101 0 6 4 12 9 14 5 2 29 35 54
73 102 159 176 343 218 541 31 142 33 427 5 569 -83 426 -283 745 -626 1004
-82 62 -295 181 -323 181 -5 0 -7 -16 -4 -37z m421 -2265 c-9 -14 -23 2 -17
18 4 12 8 13 14 3 4 -7 5 -17 3 -21z m-169 -158 c3 -6 -1 -7 -9 -4 -18 7 -21
14 -7 14 6 0 13 -4 16 -10z m211 -112 c3 -4 -1 -5 -10 -4 -8 1 -18 5 -22 8 -3
4 1 5 10 4 8 -1 18 -5 22 -8z m-491 -308 c3 -6 -1 -7 -9 -4 -18 7 -21 14 -7
14 6 0 13 -4 16 -10z"/>
<path d="M1685 2868 c20 -64 15 -96 -55 -380 -65 -257 -77 -295 -107 -334 -18
-24 -33 -46 -33 -49 0 -3 61 -5 135 -5 74 0 135 4 135 9 0 5 -7 25 -15 44 -8
20 -15 48 -15 62 0 25 0 25 94 25 110 0 117 -7 91 -81 -8 -24 -15 -47 -15 -51
0 -5 97 -8 215 -8 118 0 215 4 215 8 0 5 -9 17 -21 28 -38 35 -56 86 -139 414
-45 179 -84 328 -86 332 -3 5 -95 8 -206 8 l-200 0 7 -22z m181 -348 l31 -160
-70 0 c-51 0 -68 3 -65 13 3 6 18 78 34 160 15 81 31 147 34 147 3 0 19 -72
36 -160z"/>
<path d="M2410 2885 c0 -2 9 -22 20 -44 20 -37 21 -53 18 -359 -3 -288 -5
-322 -20 -339 -39 -42 -33 -43 297 -43 l315 0 4 23 c7 28 26 162 26 176 0 6
-7 11 -15 11 -8 0 -15 -4 -15 -9 0 -5 -24 -21 -52 -35 -43 -20 -71 -26 -146
-28 l-93 -3 1 285 c1 263 2 288 20 323 11 21 20 40 20 42 0 3 -85 5 -190 5
-104 0 -190 -2 -190 -5z"/>
<path d="M3162 2883 c51 -100 49 -82 46 -402 -3 -292 -4 -300 -25 -330 -13
-17 -23 -35 -23 -41 0 -6 67 -10 195 -10 107 0 195 3 195 6 0 3 -11 20 -25 38
l-25 33 0 313 0 313 25 44 26 43 -196 0 c-108 0 -195 -3 -193 -7z"/>
<path d="M2681 1864 c-18 -13 -21 -25 -21 -90 0 -91 10 -114 50 -114 19 0 33
7 40 19 15 29 12 61 -5 61 -9 0 -15 -10 -15 -26 0 -19 -4 -25 -17 -22 -15 3
-18 15 -18 78 0 60 3 75 15 75 8 0 16 -10 18 -22 4 -27 32 -31 32 -5 0 42 -46
69 -79 46z"/>
<path d="M2136 1855 c-12 -33 -6 -58 24 -92 34 -38 41 -77 13 -71 -10 2 -17
10 -15 16 1 7 -5 12 -13 12 -18 0 -20 -31 -3 -48 7 -7 21 -12 33 -12 53 0 61
62 14 114 -30 35 -35 66 -11 74 6 2 12 -3 12 -12 0 -9 7 -16 16 -16 10 0 14 7
12 23 -2 17 -10 23 -39 25 -26 2 -38 -1 -43 -13z"/>
<path d="M2250 1764 l0 -105 43 3 c45 3 54 21 12 26 -21 3 -25 8 -25 37 0 28
3 33 20 30 13 -2 20 2 20 11 0 8 -9 14 -20 14 -16 0 -20 7 -20 35 0 31 3 35
25 35 14 0 25 5 25 10 0 6 -18 10 -40 10 l-40 0 0 -106z"/>
<path d="M2360 1765 c0 -87 3 -105 15 -105 11 0 15 12 15 45 0 25 4 45 8 45
18 0 32 -26 32 -57 0 -23 5 -33 15 -33 16 0 20 49 6 85 -5 11 -4 33 2 48 6 20
6 36 -2 53 -9 20 -18 24 -51 24 l-40 0 0 -105z m63 63 c13 -20 2 -48 -18 -48
-11 0 -15 10 -15 36 0 37 14 42 33 12z"/>
<path d="M2480 1853 c0 -16 17 -127 26 -170 3 -16 12 -23 28 -23 22 0 24 6 36
92 7 51 15 98 17 105 3 7 -2 13 -10 13 -17 0 -22 -18 -33 -105 -6 -49 -9 -55
-15 -35 -4 14 -10 51 -14 83 -4 40 -11 57 -21 57 -8 0 -14 -8 -14 -17z"/>
<path d="M2610 1765 c0 -87 3 -105 15 -105 12 0 15 18 15 105 0 87 -3 105 -15
105 -12 0 -15 -18 -15 -105z"/>
<path d="M2780 1765 l0 -105 45 0 c33 0 45 4 45 15 0 10 -10 15 -31 15 -28 0
-30 2 -27 33 2 24 8 32 22 32 11 0 21 6 23 13 3 7 -5 12 -22 12 -24 0 -26 3
-23 33 2 27 8 33 31 35 44 5 31 22 -18 22 l-45 0 0 -105z"/>
</g>
</svg>
